<?xml version="1.0" encoding="utf-8"?>
<!-- Generator: Adobe Illustrator 21.1.0, SVG Export Plug-In . SVG Version: 6.00 Build 0)  -->
<svg version="1.1" id="Layer_2" xmlns="http://www.w3.org/2000/svg" xmlns:xlink="http://www.w3.org/1999/xlink" x="0px" y="0px"
	 viewBox="0 0 1000 1000" style="enable-background:new 0 0 1000 1000;" xml:space="preserve">
<style type="text/css">
	.st0{fill:#999999;}
</style>
<path class="st0" d="M500,85c-33,126.3-131.6,252.7-296,379c0,12-122,12-122,0V85H500z"/>
<path class="st0" d="M82,486c1.8,12.8,124.8,12.4,123,0c5.4,168.3,45,314.1,68,408c0,14-191,14-191,0V486z"/>
<path class="st0" d="M510,85c33,126.3,131.6,252.7,296,379c0,12,122,12,122,0V85H510z"/>
<path class="st0" d="M928,486c-1.8,12.8-124.8,12.4-123,0c-5.4,168.3-45,314.1-68,408c0,14,191,14,191,0V486z"/>
</svg>
