<?xml version="1.0" encoding="utf-8"?>
<!-- Generator: Adobe Illustrator 21.1.0, SVG Export Plug-In . SVG Version: 6.00 Build 0)  -->
<svg version="1.1" id="Layer_1" xmlns="http://www.w3.org/2000/svg" xmlns:xlink="http://www.w3.org/1999/xlink" x="0px" y="0px"
	 viewBox="0 0 1600 1600" style="enable-background:new 0 0 1600 1600;" xml:space="preserve">
<style type="text/css">
	.st0{fill:#CCCCCC;}
</style>
<g>
	<path class="st0" d="M1127,1119.3c0,89.2-31.7,165.5-95.1,228.9c-63.4,63.4-139.7,95.1-228.9,95.1c-89.2,0-165.5-31.7-228.9-95.1
		c-63.4-63.4-95.1-139.7-95.1-228.9c0-87.8,30.9-163.2,92.6-226.4V378.8c0-64.1,22.5-118.7,67.6-163.8
		c45.1-45.1,99.7-67.6,163.8-67.6s118.7,22.5,163.8,67.6c45.1,45.1,67.6,99.7,67.6,163.8V893C1096.1,956.1,1127,1031.6,1127,1119.3z
		 M1034.4,1119.3c0-37.1-8.2-71.8-24.6-104.1c-16.4-32.3-39-59.3-68-81V378.8c0-38.6-13.5-71.4-40.5-98.4s-59.8-40.5-98.4-40.5
		c-38.6,0-71.4,13.5-98.4,40.5s-40.5,59.8-40.5,98.4v555.4c-28.9,21.7-51.6,48.7-68,81c-16.4,32.3-24.6,67-24.6,104.1
		c0,64.1,22.5,118.7,67.6,163.8s99.7,67.6,163.8,67.6s118.7-22.5,163.8-67.6S1034.4,1183.5,1034.4,1119.3z M941.9,1119.3
		c0,38.6-13.5,71.4-40.5,98.4s-59.8,40.5-98.4,40.5c-38.6,0-71.4-13.5-98.4-40.5s-40.5-59.8-40.5-98.4c0-38.1,13.5-70.7,40.5-98
		s59.8-40.9,98.4-40.9c38.6,0,71.4,13.6,98.4,40.9S941.9,1081.3,941.9,1119.3z M1219.6,332.5v92.6h-138.9v-92.6H1219.6z
		 M1219.6,517.6v92.6h-138.9v-92.6H1219.6z M1219.6,702.8v92.6h-138.9v-92.6H1219.6z"/>
</g>
</svg>
