<?xml version="1.0" encoding="utf-8"?>
<!-- Generator: Adobe Illustrator 21.1.0, SVG Export Plug-In . SVG Version: 6.00 Build 0)  -->
<svg version="1.1" id="Layer_1" xmlns="http://www.w3.org/2000/svg" xmlns:xlink="http://www.w3.org/1999/xlink" x="0px" y="0px"
	 viewBox="0 0 1600 1600" style="enable-background:new 0 0 1600 1600;" xml:space="preserve">
<style type="text/css">
	.st0{fill:none;stroke:#999999;stroke-width:40;stroke-miterlimit:10;}
	.st1{fill:#CCCCCC;}
</style>
<path class="st0" d="M357,1361V309c0-6.6,5.4-12,12-12c0,122.7,872,122.7,872,0c6.6,0,12,5.4,12,12v1052
	C1253,1476.8,357,1476.8,357,1361z"/>
<path class="st1" d="M906.1,696.8c77.4,169.4,138.9,407.1-94.9,403.1c-161.3-2.8-174.2-126.7-140.9-258.1
	c-140.1,24.6-266.2-80-266.2-80V1332c0,90.5,806,90.5,806,0V761.8C1210,761.8,1061.6,630.2,906.1,696.8z"/>
<path class="st1" d="M812.9,594.5c25.6-60.2-313,477,0,482.3C1142.5,1082.5,787.9,527.9,812.9,594.5z"/>
<line class="st1" x1="807" y1="1400" x2="807" y2="1400"/>
<path class="st0" d="M357,297c0-144,896-144,896,0"/>
</svg>
